<svg id="visual" viewBox="0 0 900 600" width="900" height="600" xmlns="http://www.w3.org/2000/svg" xmlns:xlink="http://www.w3.org/1999/xlink" version="1.1"><g stroke-width="1" stroke-linejoin="bevel"><path d="M421 306L499 310L485 238Z" fill="#00101c" stroke="#00101c"></path><path d="M499 310L561 301L485 238Z" fill="#246688" stroke="#246688"></path><path d="M485 238L382 189L421 306Z" fill="#112e42" stroke="#112e42"></path><path d="M561 301L577 215L485 238Z" fill="#277297" stroke="#277297"></path><path d="M485 238L413 121L382 189Z" fill="#112e42" stroke="#112e42"></path><path d="M421 306L528 406L499 310Z" fill="#205a7a" stroke="#205a7a"></path><path d="M499 310L528 406L561 301Z" fill="#19435d" stroke="#19435d"></path><path d="M382 189L304 232L421 306Z" fill="#277297" stroke="#277297"></path><path d="M421 306L362 431L528 406Z" fill="#081a28" stroke="#081a28"></path><path d="M531 64L413 121L485 238Z" fill="#112e42" stroke="#112e42"></path><path d="M382 189L279 98L304 232Z" fill="#1d4e6b" stroke="#1d4e6b"></path><path d="M304 232L283 291L421 306Z" fill="#19435d" stroke="#19435d"></path><path d="M332 416L362 431L421 306Z" fill="#1d4e6b" stroke="#1d4e6b"></path><path d="M574 487L575 425L528 406Z" fill="#15384f" stroke="#15384f"></path><path d="M528 406L575 425L561 301Z" fill="#1d4e6b" stroke="#1d4e6b"></path><path d="M561 301L709 288L577 215Z" fill="#112e42" stroke="#112e42"></path><path d="M283 291L332 416L421 306Z" fill="#1d4e6b" stroke="#1d4e6b"></path><path d="M362 431L482 471L528 406Z" fill="#15384f" stroke="#15384f"></path><path d="M575 425L668 364L561 301Z" fill="#15384f" stroke="#15384f"></path><path d="M228 231L237 260L304 232Z" fill="#246688" stroke="#246688"></path><path d="M304 232L237 260L283 291Z" fill="#277297" stroke="#277297"></path><path d="M283 291L216 418L332 416Z" fill="#1d4e6b" stroke="#1d4e6b"></path><path d="M614 66L531 64L577 215Z" fill="#081a28" stroke="#081a28"></path><path d="M577 215L531 64L485 238Z" fill="#19435d" stroke="#19435d"></path><path d="M575 425L574 487L668 364Z" fill="#112e42" stroke="#112e42"></path><path d="M482 471L574 487L528 406Z" fill="#246688" stroke="#246688"></path><path d="M279 98L228 231L304 232Z" fill="#112e42" stroke="#112e42"></path><path d="M709 288L673 164L577 215Z" fill="#297ea6" stroke="#297ea6"></path><path d="M332 416L362 505L362 431Z" fill="#0c2435" stroke="#0c2435"></path><path d="M362 431L362 505L482 471Z" fill="#246688" stroke="#246688"></path><path d="M482 471L530 600L574 487Z" fill="#00101c" stroke="#00101c"></path><path d="M314 521L362 505L332 416Z" fill="#297ea6" stroke="#297ea6"></path><path d="M668 364L709 288L561 301Z" fill="#00101c" stroke="#00101c"></path><path d="M410 0L279 98L413 121Z" fill="#15384f" stroke="#15384f"></path><path d="M413 121L279 98L382 189Z" fill="#00101c" stroke="#00101c"></path><path d="M673 164L614 66L577 215Z" fill="#19435d" stroke="#19435d"></path><path d="M125 422L216 418L93 291Z" fill="#081a28" stroke="#081a28"></path><path d="M237 260L216 418L283 291Z" fill="#15384f" stroke="#15384f"></path><path d="M216 418L314 521L332 416Z" fill="#112e42" stroke="#112e42"></path><path d="M362 505L436 600L482 471Z" fill="#277297" stroke="#277297"></path><path d="M531 64L410 0L413 121Z" fill="#112e42" stroke="#112e42"></path><path d="M522 0L410 0L531 64Z" fill="#081a28" stroke="#081a28"></path><path d="M615 0L522 0L531 64Z" fill="#277297" stroke="#277297"></path><path d="M674 0L615 0L614 66Z" fill="#277297" stroke="#277297"></path><path d="M614 66L615 0L531 64Z" fill="#081a28" stroke="#081a28"></path><path d="M812 223L713 81L673 164Z" fill="#246688" stroke="#246688"></path><path d="M673 164L713 81L614 66Z" fill="#112e42" stroke="#112e42"></path><path d="M301 600L436 600L362 505Z" fill="#00101c" stroke="#00101c"></path><path d="M436 600L530 600L482 471Z" fill="#081a28" stroke="#081a28"></path><path d="M735 528L766 412L668 364Z" fill="#0c2435" stroke="#0c2435"></path><path d="M766 412L789 271L709 288Z" fill="#0c2435" stroke="#0c2435"></path><path d="M709 288L812 223L673 164Z" fill="#0c2435" stroke="#0c2435"></path><path d="M766 412L709 288L668 364Z" fill="#297ea6" stroke="#297ea6"></path><path d="M410 0L287 0L279 98Z" fill="#277297" stroke="#277297"></path><path d="M279 98L160 68L228 231Z" fill="#112e42" stroke="#112e42"></path><path d="M735 528L668 364L574 487Z" fill="#0c2435" stroke="#0c2435"></path><path d="M530 600L574 600L574 487Z" fill="#297ea6" stroke="#297ea6"></path><path d="M125 422L181 484L216 418Z" fill="#0c2435" stroke="#0c2435"></path><path d="M216 418L181 484L314 521Z" fill="#205a7a" stroke="#205a7a"></path><path d="M314 521L301 600L362 505Z" fill="#19435d" stroke="#19435d"></path><path d="M713 81L674 0L614 66Z" fill="#205a7a" stroke="#205a7a"></path><path d="M900 314L812 223L789 271Z" fill="#1d4e6b" stroke="#1d4e6b"></path><path d="M789 271L812 223L709 288Z" fill="#19435d" stroke="#19435d"></path><path d="M713 81L793 0L674 0Z" fill="#205a7a" stroke="#205a7a"></path><path d="M226 600L301 600L314 521Z" fill="#277297" stroke="#277297"></path><path d="M93 291L216 418L237 260Z" fill="#15384f" stroke="#15384f"></path><path d="M93 291L237 260L228 231Z" fill="#0c2435" stroke="#0c2435"></path><path d="M190 0L160 68L279 98Z" fill="#00101c" stroke="#00101c"></path><path d="M86 212L93 291L228 231Z" fill="#081a28" stroke="#081a28"></path><path d="M707 600L735 528L574 487Z" fill="#205a7a" stroke="#205a7a"></path><path d="M114 114L86 212L228 231Z" fill="#297ea6" stroke="#297ea6"></path><path d="M160 68L114 114L228 231Z" fill="#081a28" stroke="#081a28"></path><path d="M287 0L190 0L279 98Z" fill="#112e42" stroke="#112e42"></path><path d="M160 68L80 0L114 114Z" fill="#15384f" stroke="#15384f"></path><path d="M181 484L226 600L314 521Z" fill="#277297" stroke="#277297"></path><path d="M105 538L226 600L181 484Z" fill="#0c2435" stroke="#0c2435"></path><path d="M574 600L707 600L574 487Z" fill="#1d4e6b" stroke="#1d4e6b"></path><path d="M788 600L817 472L735 528Z" fill="#1d4e6b" stroke="#1d4e6b"></path><path d="M735 528L817 472L766 412Z" fill="#00101c" stroke="#00101c"></path><path d="M900 377L900 314L789 271Z" fill="#0c2435" stroke="#0c2435"></path><path d="M900 196L816 69L812 223Z" fill="#081a28" stroke="#081a28"></path><path d="M812 223L816 69L713 81Z" fill="#297ea6" stroke="#297ea6"></path><path d="M816 69L793 0L713 81Z" fill="#19435d" stroke="#19435d"></path><path d="M900 377L789 271L766 412Z" fill="#205a7a" stroke="#205a7a"></path><path d="M816 69L900 0L793 0Z" fill="#246688" stroke="#246688"></path><path d="M0 502L105 538L125 422Z" fill="#1d4e6b" stroke="#1d4e6b"></path><path d="M125 422L105 538L181 484Z" fill="#081a28" stroke="#081a28"></path><path d="M0 406L125 422L93 291Z" fill="#00101c" stroke="#00101c"></path><path d="M900 314L900 196L812 223Z" fill="#1d4e6b" stroke="#1d4e6b"></path><path d="M817 472L900 377L766 412Z" fill="#081a28" stroke="#081a28"></path><path d="M900 465L900 377L817 472Z" fill="#246688" stroke="#246688"></path><path d="M707 600L788 600L735 528Z" fill="#0c2435" stroke="#0c2435"></path><path d="M0 173L0 272L86 212Z" fill="#246688" stroke="#246688"></path><path d="M86 212L0 272L93 291Z" fill="#277297" stroke="#277297"></path><path d="M0 173L86 212L114 114Z" fill="#277297" stroke="#277297"></path><path d="M190 0L80 0L160 68Z" fill="#19435d" stroke="#19435d"></path><path d="M0 100L0 173L114 114Z" fill="#246688" stroke="#246688"></path><path d="M900 600L900 465L817 472Z" fill="#246688" stroke="#246688"></path><path d="M0 272L0 406L93 291Z" fill="#205a7a" stroke="#205a7a"></path><path d="M900 196L900 76L816 69Z" fill="#19435d" stroke="#19435d"></path><path d="M80 0L0 100L114 114Z" fill="#297ea6" stroke="#297ea6"></path><path d="M105 538L66 600L226 600Z" fill="#15384f" stroke="#15384f"></path><path d="M0 502L66 600L105 538Z" fill="#081a28" stroke="#081a28"></path><path d="M0 406L0 502L125 422Z" fill="#15384f" stroke="#15384f"></path><path d="M900 76L900 0L816 69Z" fill="#0c2435" stroke="#0c2435"></path><path d="M80 0L0 0L0 100Z" fill="#0c2435" stroke="#0c2435"></path><path d="M788 600L900 600L817 472Z" fill="#246688" stroke="#246688"></path><path d="M0 502L0 600L66 600Z" fill="#0c2435" stroke="#0c2435"></path></g></svg>