<?xml version="1.0" standalone="no"?>
<svg viewBox="0 0 200 200" xmlns="http://www.w3.org/2000/svg">
  <path fill="#0F62FE" d="M32.2,-59.5C42.6,-49.7,52.6,-42.9,58,-33.5C63.3,-24.1,64,-12.1,67.5,2C70.9,16.1,77.2,32.1,72.6,42.9C68.1,53.7,52.8,59.3,38.9,61.6C25,64,12.5,63,-2.1,66.6C-16.7,70.2,-33.3,78.4,-40.8,72.4C-48.3,66.3,-46.5,46.1,-50.4,31.7C-54.3,17.3,-63.7,8.6,-65.9,-1.2C-68,-11.1,-62.9,-22.2,-58.3,-35.4C-53.7,-48.5,-49.6,-63.8,-40,-74C-30.4,-84.3,-15.2,-89.7,-2.2,-85.9C10.9,-82.1,21.7,-69.3,32.2,-59.5Z" transform="translate(100 100)" />
</svg>
