<?xml version="1.0" standalone="no"?><svg xmlns="http://www.w3.org/2000/svg" viewBox="0 0 1440 320"><path fill="#071a28" fill-opacity="1" d="M0,32L30,58.7C60,85,120,139,180,144C240,149,300,107,360,85.3C420,64,480,64,540,85.3C600,107,660,149,720,186.7C780,224,840,256,900,256C960,256,1020,224,1080,186.7C1140,149,1200,107,1260,90.7C1320,75,1380,85,1410,90.7L1440,96L1440,320L1410,320C1380,320,1320,320,1260,320C1200,320,1140,320,1080,320C1020,320,960,320,900,320C840,320,780,320,720,320C660,320,600,320,540,320C480,320,420,320,360,320C300,320,240,320,180,320C120,320,60,320,30,320L0,320Z"></path></svg>