<?xml version="1.0" standalone="no"?><svg xmlns="http://www.w3.org/2000/svg" viewBox="0 0 1440 320"><path fill="287297" fill-opacity="1" d="M0,192L34.3,186.7C68.6,181,137,171,206,138.7C274.3,107,343,53,411,32C480,11,549,21,617,58.7C685.7,96,754,160,823,170.7C891.4,181,960,139,1029,138.7C1097.1,139,1166,181,1234,181.3C1302.9,181,1371,139,1406,117.3L1440,96L1440,0L1405.7,0C1371.4,0,1303,0,1234,0C1165.7,0,1097,0,1029,0C960,0,891,0,823,0C754.3,0,686,0,617,0C548.6,0,480,0,411,0C342.9,0,274,0,206,0C137.1,0,69,0,34,0L0,0Z"></path></svg>